<svg width="25" height="24" viewBox="0 0 25 24" fill="none" xmlns="http://www.w3.org/2000/svg">
<path fill-rule="evenodd" clip-rule="evenodd" d="M9.918 10.0001H7.082C6.66587 9.99659 6.26541 10.1586 5.96873 10.4504C5.67204 10.7422 5.50343 11.1399 5.5 11.5561V17.4451C5.5077 18.3112 6.21584 19.0073 7.082 19.0001H9.918C10.3341 19.0035 10.7346 18.8415 11.0313 18.5497C11.328 18.2579 11.4966 17.8602 11.5 17.4441V11.5561C11.4966 11.1399 11.328 10.7422 11.0313 10.4504C10.7346 10.1586 10.3341 9.99659 9.918 10.0001Z" stroke="#150838" stroke-width="1.5" stroke-linecap="round" stroke-linejoin="round"/>
<path fill-rule="evenodd" clip-rule="evenodd" d="M9.918 4.0006H7.082C6.23326 3.97706 5.52559 4.64492 5.5 5.4936V6.5076C5.52559 7.35629 6.23326 8.02415 7.082 8.0006H9.918C10.7667 8.02415 11.4744 7.35629 11.5 6.5076V5.4936C11.4744 4.64492 10.7667 3.97706 9.918 4.0006Z" stroke="#150838" stroke-width="1.5" stroke-linecap="round" stroke-linejoin="round"/>
<path fill-rule="evenodd" clip-rule="evenodd" d="M15.082 13.001H17.917C18.3333 13.0048 18.734 12.8429 19.0309 12.551C19.3278 12.2592 19.4966 11.8613 19.5 11.445V5.55703C19.4966 5.1409 19.328 4.74318 19.0313 4.45137C18.7346 4.15956 18.3341 3.99757 17.918 4.00103H15.082C14.6659 3.99757 14.2654 4.15956 13.9687 4.45137C13.672 4.74318 13.5034 5.1409 13.5 5.55703V11.445C13.5034 11.8612 13.672 12.2589 13.9687 12.5507C14.2654 12.8425 14.6659 13.0045 15.082 13.001Z" stroke="#150838" stroke-width="1.5" stroke-linecap="round" stroke-linejoin="round"/>
<path fill-rule="evenodd" clip-rule="evenodd" d="M15.082 19.0006H17.917C18.7661 19.0247 19.4744 18.3567 19.5 17.5076V16.4936C19.4744 15.6449 18.7667 14.9771 17.918 15.0006H15.082C14.2333 14.9771 13.5256 15.6449 13.5 16.4936V17.5066C13.525 18.3557 14.2329 19.0241 15.082 19.0006Z" stroke="#150838" stroke-width="1.5" stroke-linecap="round" stroke-linejoin="round"/>
</svg>
