<svg width="25" height="24" viewBox="0 0 25 24" fill="none" xmlns="http://www.w3.org/2000/svg">
<path d="M9.5 14.0002C9.68131 14.4725 9.97841 14.8917 10.364 15.2192C11.5903 16.2485 13.3748 16.2615 14.616 15.2502C15.0069 14.9285 15.3109 14.5138 15.5 14.0442" stroke="black" stroke-width="1.5" stroke-linecap="round" stroke-linejoin="round"/>
<path fill-rule="evenodd" clip-rule="evenodd" d="M19.5 12C19.5 15.866 16.366 19 12.5 19C8.63401 19 5.5 15.866 5.5 12C5.5 8.13401 8.63401 5 12.5 5C14.3565 5 16.137 5.7375 17.4497 7.05025C18.7625 8.36301 19.5 10.1435 19.5 12Z" stroke="black" stroke-width="1.5" stroke-linecap="round" stroke-linejoin="round"/>
<path d="M13.5 9.6741C13.6748 10.0703 14.067 10.3259 14.5 10.3259C14.933 10.3259 15.3252 10.0703 15.5 9.6741" stroke="black" stroke-width="1.5" stroke-linecap="round"/>
<path d="M9.5 9.6741C9.67479 10.0703 10.067 10.3259 10.5 10.3259C10.933 10.3259 11.3252 10.0703 11.5 9.6741" stroke="black" stroke-width="1.5" stroke-linecap="round"/>
</svg>
