<svg width="25" height="24" viewBox="0 0 25 24" fill="none" xmlns="http://www.w3.org/2000/svg">
<path d="M19.5 19H9.5C7.29086 19 5.5 17.2091 5.5 15V5" stroke="#150838" stroke-width="1.5" stroke-linecap="round" stroke-linejoin="round"/>
<path d="M15.6192 7.25C15.205 7.25 14.8692 7.58579 14.8692 8C14.8692 8.41421 15.205 8.75 15.6192 8.75V7.25ZM19.5002 8.75C19.9144 8.75 20.2502 8.41421 20.2502 8C20.2502 7.58579 19.9144 7.25 19.5002 7.25V8.75ZM20.2502 8C20.2502 7.58579 19.9144 7.25 19.5002 7.25C19.086 7.25 18.7502 7.58579 18.7502 8H20.2502ZM18.7502 11.607C18.7502 12.0212 19.086 12.357 19.5002 12.357C19.9144 12.357 20.2502 12.0212 20.2502 11.607H18.7502ZM20.0767 8.47973C20.3417 8.16133 20.2983 7.68844 19.9799 7.42349C19.6615 7.15855 19.1886 7.20188 18.9237 7.52027L20.0767 8.47973ZM15.5002 12.807L16.004 13.3626C16.03 13.339 16.0543 13.3137 16.0767 13.2867L15.5002 12.807ZM13.9312 12.868L13.4665 13.4567L13.4721 13.461L13.9312 12.868ZM12.8822 12.04L13.3469 11.4513L13.3431 11.4483L12.8822 12.04ZM11.2002 12.223L10.6228 11.7443C10.6155 11.7532 10.6083 11.7623 10.6013 11.7716L11.2002 12.223ZM11.0722 12.375L11.6077 12.9002C11.6115 12.8963 11.6153 12.8923 11.619 12.8884L11.0722 12.375ZM7.83076 14.6088C7.54072 14.9046 7.54533 15.3794 7.84105 15.6694C8.13677 15.9595 8.61162 15.9549 8.90166 15.6592L7.83076 14.6088ZM15.6192 8.75H19.5002V7.25H15.6192V8.75ZM18.7502 8V11.607H20.2502V8H18.7502ZM18.9237 7.52027L14.9237 12.3273L16.0767 13.2867L20.0767 8.47973L18.9237 7.52027ZM14.9964 12.2514C14.8268 12.4052 14.5714 12.4151 14.3904 12.275L13.4721 13.461C14.2283 14.0465 15.2956 14.005 16.004 13.3626L14.9964 12.2514ZM14.3959 12.2793L13.3469 11.4513L12.4175 12.6287L13.4665 13.4567L14.3959 12.2793ZM13.3431 11.4483C12.5054 10.7957 11.3007 10.9268 10.6228 11.7443L11.7776 12.7017C11.938 12.5082 12.2231 12.4772 12.4213 12.6317L13.3431 11.4483ZM10.6013 11.7716C10.5776 11.8029 10.5523 11.833 10.5254 11.8616L11.619 12.8884C11.6828 12.8203 11.743 12.7489 11.7991 12.6744L10.6013 11.7716ZM10.5368 11.8498L7.83076 14.6088L8.90166 15.6592L11.6077 12.9002L10.5368 11.8498Z" fill="#150838"/>
</svg>
