<svg width="25" height="24" viewBox="0 0 25 24" fill="none" xmlns="http://www.w3.org/2000/svg">
<path fill-rule="evenodd" clip-rule="evenodd" d="M13.8845 19.4406C13.9066 19.9218 13.5356 20.3303 13.0545 20.3546H11.3815C10.9004 20.3303 10.5294 19.9218 10.5515 19.4406V17.6656C8.19276 16.8 6.85437 14.3068 7.43638 11.8626C8.01839 9.41837 10.3368 7.79592 12.8325 8.08629C15.3282 8.37665 17.2122 10.488 17.2175 13.0006C17.2109 15.1059 15.8741 16.977 13.8845 17.6656V19.4406Z" stroke="#150838" stroke-width="1.5" stroke-linecap="round" stroke-linejoin="round"/>
<path d="M14.052 18.415C14.4662 18.415 14.802 18.0792 14.802 17.665C14.802 17.2508 14.4662 16.915 14.052 16.915V18.415ZM10.718 16.915C10.3038 16.915 9.96799 17.2508 9.96799 17.665C9.96799 18.0792 10.3038 18.415 10.718 18.415V16.915ZM11.4678 5C11.4678 5.41421 11.8036 5.75 12.2178 5.75C12.632 5.75 12.9678 5.41421 12.9678 5H11.4678ZM12.9678 3C12.9678 2.58579 12.632 2.25 12.2178 2.25C11.8036 2.25 11.4678 2.58579 11.4678 3H12.9678ZM11.4678 14C11.4678 14.4142 11.8036 14.75 12.2178 14.75C12.632 14.75 12.9678 14.4142 12.9678 14H11.4678ZM12.9678 12C12.9678 11.5858 12.632 11.25 12.2178 11.25C11.8036 11.25 11.4678 11.5858 11.4678 12H12.9678ZM19.4629 6.88771C19.7577 6.59669 19.7607 6.12183 19.4697 5.82707C19.1787 5.53231 18.7038 5.52928 18.4091 5.8203L19.4629 6.88771ZM16.9911 7.2203C16.6963 7.51131 16.6933 7.98618 16.9843 8.28094C17.2753 8.57569 17.7502 8.57873 18.0449 8.28771L16.9911 7.2203ZM6.39107 8.28771C6.68583 8.57873 7.16069 8.57569 7.45171 8.28094C7.74272 7.98618 7.73969 7.51131 7.44493 7.2203L6.39107 8.28771ZM6.02693 5.8203C5.73217 5.52928 5.25731 5.53231 4.96629 5.82707C4.67528 6.12183 4.67831 6.59669 4.97307 6.88771L6.02693 5.8203ZM14.052 16.915H10.718V18.415H14.052V16.915ZM12.9678 5V3H11.4678V5H12.9678ZM12.9678 14V12H11.4678V14H12.9678ZM18.4091 5.8203L16.9911 7.2203L18.0449 8.28771L19.4629 6.88771L18.4091 5.8203ZM7.44493 7.2203L6.02693 5.8203L4.97307 6.88771L6.39107 8.28771L7.44493 7.2203Z" fill="#150838"/>
</svg>
