<svg width="24" height="24" viewBox="0 0 24 24" fill="none" xmlns="http://www.w3.org/2000/svg">
<path d="M12.729 4.87579V20.0138M12.729 10.6628C14.042 10.8279 15.3746 10.6022 16.56 10.0138C16.946 9.80468 17.2992 9.53984 17.608 9.22779C17.9065 8.8934 18.156 8.51833 18.349 8.11379C18.9084 6.83764 19.1205 5.43633 18.964 4.05179C17.6506 3.88788 16.318 4.11502 15.133 4.70479C14.747 4.91391 14.3938 5.17875 14.085 5.49079C13.7868 5.82426 13.5373 6.19831 13.344 6.60179C12.999 7.34298 12.7909 8.1405 12.73 8.95579M5 7.42574C5.10323 8.88053 5.60831 10.2781 6.459 11.4627C6.73632 11.8142 7.069 12.1182 7.444 12.3627C7.82676 12.5813 8.24359 12.7337 8.677 12.8137C10.0658 12.9986 11.4781 12.7588 12.728 12.1257C12.6258 10.6697 12.121 9.27064 11.27 8.08474C10.9927 7.73328 10.66 7.4293 10.285 7.18474C9.90205 6.96728 9.48523 6.81583 9.052 6.73674C7.66275 6.55194 6.25009 6.79215 5 7.42574Z" stroke="#150838" stroke-width="1.5" stroke-linecap="round" stroke-linejoin="round"/>
</svg>
