<svg width="29" height="28" viewBox="0 0 29 28" fill="none" xmlns="http://www.w3.org/2000/svg">
<g filter="url(#filter0_d_604_2821)">
<path fill-rule="evenodd" clip-rule="evenodd" d="M16.875 7.375C16.875 8.68668 15.8117 9.75 14.5 9.75C13.1883 9.75 12.125 8.68668 12.125 7.375C12.125 6.06332 13.1883 5 14.5 5C15.8117 5 16.875 6.06332 16.875 7.375Z" stroke="black" stroke-width="1.5" stroke-linecap="round" stroke-linejoin="round"/>
<path fill-rule="evenodd" clip-rule="evenodd" d="M19.25 15.7758C19.25 17.5758 17.123 19.0428 14.5 19.0428C11.877 19.0428 9.75 17.5798 9.75 15.7758C9.75 13.9718 11.877 12.5098 14.5 12.5098C17.123 12.5098 19.25 13.9718 19.25 15.7758Z" stroke="black" stroke-width="1.5" stroke-linecap="round" stroke-linejoin="round"/>
<path fill-rule="evenodd" clip-rule="evenodd" d="M21.8996 9.5524C21.9098 10.1309 21.5691 10.6582 21.0375 10.8866C20.5059 11.1151 19.8889 10.9994 19.4762 10.5939C19.0634 10.1884 18.9369 9.57357 19.1559 9.038C19.3749 8.50244 19.896 8.15249 20.4746 8.1524C21.2546 8.14574 21.8925 8.7724 21.8996 9.5524V9.5524Z" stroke="black" stroke-width="1.5" stroke-linecap="round" stroke-linejoin="round"/>
<path fill-rule="evenodd" clip-rule="evenodd" d="M7.09983 9.5524C7.08968 10.1309 7.43036 10.6582 7.96196 10.8866C8.49356 11.1151 9.11054 10.9994 9.52328 10.5939C9.93603 10.1884 10.0626 9.57357 9.84358 9.038C9.62456 8.50244 9.10344 8.15249 8.52483 8.1524C7.74483 8.14574 7.10698 8.7724 7.09983 9.5524Z" stroke="black" stroke-width="1.5" stroke-linecap="round" stroke-linejoin="round"/>
<path d="M21.2169 17.3623C20.8043 17.3253 20.4399 17.6298 20.403 18.0424C20.366 18.455 20.6705 18.8194 21.0831 18.8563L21.2169 17.3623ZM24 15.7753L24.7455 15.857C24.7515 15.8026 24.7515 15.7477 24.7455 15.6933L24 15.7753ZM21.0831 12.6953C20.6705 12.7322 20.366 13.0966 20.403 13.5092C20.4399 13.9218 20.8044 14.2263 21.2169 14.1893L21.0831 12.6953ZM7.91689 18.8563C8.32945 18.8194 8.63395 18.455 8.59701 18.0424C8.56007 17.6298 8.19567 17.3253 7.78311 17.3623L7.91689 18.8563ZM5 15.7753L4.25449 15.6933C4.24851 15.7477 4.2485 15.8026 4.25446 15.857L5 15.7753ZM7.78308 14.1893C8.19564 14.2263 8.56005 13.9218 8.59701 13.5092C8.63397 13.0966 8.32948 12.7322 7.91692 12.6953L7.78308 14.1893ZM21.0831 18.8563C22.9169 19.0205 24.545 17.6872 24.7455 15.857L23.2545 15.6936C23.1429 16.7118 22.2371 17.4536 21.2169 17.3623L21.0831 18.8563ZM24.7455 15.6933C24.5444 13.8636 22.9165 12.531 21.0831 12.6953L21.2169 14.1893C22.2369 14.0979 23.1426 14.8393 23.2545 15.8572L24.7455 15.6933ZM7.78311 17.3623C6.76287 17.4536 5.85709 16.7118 5.74554 15.6936L4.25446 15.857C4.45496 17.6872 6.08306 19.0205 7.91689 18.8563L7.78311 17.3623ZM5.74551 15.8572C5.85742 14.8393 6.76309 14.0979 7.78308 14.1893L7.91692 12.6953C6.08354 12.531 4.45564 13.8636 4.25449 15.6933L5.74551 15.8572Z" fill="black"/>
</g>
<defs>
<filter id="filter0_d_604_2821" x="-1.5" y="0" width="32" height="32" filterUnits="userSpaceOnUse" color-interpolation-filters="sRGB">
<feFlood flood-opacity="0" result="BackgroundImageFix"/>
<feColorMatrix in="SourceAlpha" type="matrix" values="0 0 0 0 0 0 0 0 0 0 0 0 0 0 0 0 0 0 127 0" result="hardAlpha"/>
<feOffset dy="4"/>
<feGaussianBlur stdDeviation="2"/>
<feComposite in2="hardAlpha" operator="out"/>
<feColorMatrix type="matrix" values="0 0 0 0 0 0 0 0 0 0 0 0 0 0 0 0 0 0 0.25 0"/>
<feBlend mode="normal" in2="BackgroundImageFix" result="effect1_dropShadow_604_2821"/>
<feBlend mode="normal" in="SourceGraphic" in2="effect1_dropShadow_604_2821" result="shape"/>
</filter>
</defs>
</svg>
